# xmcd CD database file
#
# Track frame offsets:
#	150
#	26480
#	66417
#	98747
#	127517
#	153847
#	187010
#	212532
#
# Disc length: 3362 seconds
#
# Revision: 0
# Processed by: cddbd v1.4PL0 Copyright (c) Steve Scherf et al.
# Submitted via: CDex 1.50Beta7
#
DISCID=5f0d2008
DTITLE=David Liebman - Classic Ballads
DYEAR=1991
DGENRE=Jazz
TTITLE0=OUT OF NOWHERE
TTITLE1=IF I SHOULD LOSE YOU
TTITLE2=DANCING IN THE DARK
TTITLE3=SKYLARK
TTITLE4=STELLA BY STARLIGHT
TTITLE5=MY FUNNY VALENTINE
TTITLE6=ON GREEN DOLPHIN STREET
TTITLE7=ANGEL EYES
EXTD=YEAR: 1991
EXTT0=
EXTT1=
EXTT2=
EXTT3=
EXTT4=
EXTT5=
EXTT6=
EXTT7=
PLAYORDER=
